<svg width="55" height="34" viewBox="0 0 55 34" fill="none" xmlns="http://www.w3.org/2000/svg">
<path fill-rule="evenodd" clip-rule="evenodd" d="M0 2.55C0 1.8737 0.271623 1.2251 0.755115 0.746877C1.23861 0.26866 1.89436 0 2.57812 0H52.4219C53.1056 0 53.7614 0.26866 54.2449 0.746877C54.7284 1.2251 55 1.8737 55 2.55C55 3.2263 54.7284 3.8749 54.2449 4.35312C53.7614 4.83134 53.1056 5.1 52.4219 5.1H2.57812C1.89436 5.1 1.23861 4.83134 0.755115 4.35312C0.271623 3.8749 0 3.2263 0 2.55H0ZM0 17C0 16.3237 0.271623 15.6751 0.755115 15.1969C1.23861 14.7187 1.89436 14.45 2.57812 14.45H52.4219C53.1056 14.45 53.7614 14.7187 54.2449 15.1969C54.7284 15.6751 55 16.3237 55 17C55 17.6763 54.7284 18.3249 54.2449 18.8031C53.7614 19.2813 53.1056 19.55 52.4219 19.55H2.57812C1.89436 19.55 1.23861 19.2813 0.755115 18.8031C0.271623 18.3249 0 17.6763 0 17H0ZM2.57812 28.9C1.89436 28.9 1.23861 29.1687 0.755115 29.6469C0.271623 30.1251 0 30.7737 0 31.45C0 32.1263 0.271623 32.7749 0.755115 33.2531C1.23861 33.7313 1.89436 34 2.57812 34H52.4219C53.1056 34 53.7614 33.7313 54.2449 33.2531C54.7284 32.7749 55 32.1263 55 31.45C55 30.7737 54.7284 30.1251 54.2449 29.6469C53.7614 29.1687 53.1056 28.9 52.4219 28.9H2.57812Z" fill="#353A46"/>
</svg>
